<svg xmlns="http://www.w3.org/2000/svg" xmlns:xlink="http://www.w3.org/1999/xlink" width="1216" height="1312" preserveAspectRatio="xMidYMid meet" viewBox="0 0 1216 1312" style="-ms-transform: rotate(360deg); -webkit-transform: rotate(360deg); transform: rotate(360deg);"><path d="M1202 1066q0 40-28 68l-136 136q-28 28-68 28t-68-28L608 976l-294 294q-28 28-68 28t-68-28L42 1134q-28-28-28-68t28-68l294-294L42 410q-28-28-28-68t28-68l136-136q28-28 68-28t68 28l294 294l294-294q28-28 68-28t68 28l136 136q28 28 28 68t-28 68L880 704l294 294q28 28 28 68z" fill="#626262"/><rect x="0" y="0" width="1216" height="1312" fill="rgba(0, 0, 0, 0)" /></svg>